# Blender v2.91.0 OBJ File: 'cave_flower.blend'
# www.blender.org
mtllib lord_ores_cave_flower.mtl
o Плоскость
v -0.500000 -0.500000 -0.000000
v 0.500000 -0.500000 -0.000000
v -0.500000 0.500000 0.000000
v 0.500000 0.500000 0.000000
v 0.000000 -0.500000 0.500000
v -0.000000 -0.500000 -0.500000
v 0.000000 0.500000 0.500000
v 0.000000 0.500000 -0.500000
vt 0.000000 0.000000
vt 1.000000 0.000000
vt 1.000000 1.000000
vt 0.000000 1.000000
vt 0.000000 0.000000
vt 1.000000 0.000000
vt 1.000000 1.000000
vt 0.000000 1.000000
vn 0.0000 -0.0000 1.0000
vn 1.0000 -0.0000 -0.0000
usemtl Материал
s off
f 1/1/1 2/2/1 4/3/1 3/4/1
f 5/5/2 6/6/2 8/7/2 7/8/2
